<svg xmlns="http://www.w3.org/2000/svg" viewBox="0 0 156.83 27.5"><g id="katman_2" data-name="katman 2"><g id="katman_1-2" data-name="katman 1"><path d="M26.2,13,17.5,4.6l-2,2.1L8.4,0,0,8.7l5.3,5.1L.3,19,9,27.5l7.1-7.4,1.7,1.6ZM8.5,2.7l5.7,5.5L10.4,12l-1-1-.7-.6-2,2.1-4-3.8Zm6.3,16.1-5.7,6L3,19l3.7-3.9h0l2-2.1.3.3H9l.8.7.6.6h0l2.8,2.7ZM14.6,16l-2.8-2.7,5.8-6,6,5.8-5.8,6Z"/><path d="M37.5,18H32.78V16.53h1.6V9.47h-1.6V8.05H37.5V9.47H35.9v7.06h1.6ZM35.14,7.22A1,1,0,0,1,34.4,7a.91.91,0,0,1-.24-.66,1,1,0,0,1,.24-.64,1.14,1.14,0,0,1,1.47,0,.92.92,0,0,1,.24.66,1,1,0,0,1-.24.64A.93.93,0,0,1,35.14,7.22Z"/><path d="M43.82,12.48a3.56,3.56,0,0,0-.9-.65,2.09,2.09,0,0,0-.93-.26,2.87,2.87,0,0,0-.58.07,1.1,1.1,0,0,0-.49.26.77.77,0,0,0-.2.56.76.76,0,0,0,.46.72,6.2,6.2,0,0,0,1.11.38,10.75,10.75,0,0,1,1.13.39,2.3,2.3,0,0,1,.91.68,1.94,1.94,0,0,1,.36,1.25,1.87,1.87,0,0,1-.39,1.19,2.54,2.54,0,0,1-1,.76,3.34,3.34,0,0,1-1.29.26,4.61,4.61,0,0,1-1.59-.29,3.1,3.1,0,0,1-1.34-1l1-.85a3,3,0,0,0,.87.69,2.7,2.7,0,0,0,1.2.25,1.71,1.71,0,0,0,.53-.1,1.16,1.16,0,0,0,.46-.29.79.79,0,0,0,.19-.56.71.71,0,0,0-.2-.53,1.52,1.52,0,0,0-.55-.31,5.64,5.64,0,0,0-.75-.22,8.87,8.87,0,0,1-1.19-.42,2.59,2.59,0,0,1-1-.7,2,2,0,0,1-.38-1.26,1.75,1.75,0,0,1,.37-1.13,2.52,2.52,0,0,1,1-.74,3.35,3.35,0,0,1,1.3-.26,4.12,4.12,0,0,1,1.44.28,2.9,2.9,0,0,1,1.29.91Z"/><path d="M50.08,10.4a2.37,2.37,0,0,1,1.47.42A2.28,2.28,0,0,1,52.34,12a3,3,0,0,1,.58-.71,3.31,3.31,0,0,1,.89-.6,2.52,2.52,0,0,1,1.09-.24,2.34,2.34,0,0,1,1.49.42,2.2,2.2,0,0,1,.76,1.11,5.11,5.11,0,0,1,.22,1.56V18H55.9V13.58a2.49,2.49,0,0,0-.31-1.33,1.26,1.26,0,0,0-1.17-.51,1.82,1.82,0,0,0-1.35.52,1.65,1.65,0,0,0-.53,1.25V18H51.07v-4.4a2.34,2.34,0,0,0-.34-1.3,1.25,1.25,0,0,0-1.12-.51,1.9,1.9,0,0,0-1,.24,1.82,1.82,0,0,0-.66.63,1.63,1.63,0,0,0-.24.87V18H46.28V10.53h1.47v1.18a3.2,3.2,0,0,1,1-.91A2.45,2.45,0,0,1,50.08,10.4Z"/><path d="M66.23,10.53V18H64.76V16.8a3.68,3.68,0,0,1-1,.88,2.93,2.93,0,0,1-1.54.41,3.13,3.13,0,0,1-1.71-.5,3.46,3.46,0,0,1-1.22-1.37,4.31,4.31,0,0,1-.45-2,4.08,4.08,0,0,1,.47-2,3.47,3.47,0,0,1,1.28-1.35,3.55,3.55,0,0,1,1.87-.49,2.62,2.62,0,0,1,1.36.34,3.23,3.23,0,0,1,.94.79v-1Zm-3.67,6.21a2.12,2.12,0,0,0,1.18-.33,2.16,2.16,0,0,0,.79-.9,2.89,2.89,0,0,0,.29-1.3,2.79,2.79,0,0,0-.29-1.27,2.19,2.19,0,0,0-.79-.89,2,2,0,0,0-1.18-.34A2.07,2.07,0,0,0,61.4,12a2.13,2.13,0,0,0-.79.89,2.8,2.8,0,0,0-.29,1.28,2.89,2.89,0,0,0,.29,1.3,2.16,2.16,0,0,0,.79.9A2.07,2.07,0,0,0,62.56,16.74Z"/><path d="M69,8.91a1,1,0,0,1-.73-.25A.92.92,0,0,1,68,8a1,1,0,0,1,.24-.64A.89.89,0,0,1,69,7.08a1,1,0,0,1,.74.25A.93.93,0,0,1,70,8a1,1,0,0,1-.24.63A.92.92,0,0,1,69,8.91Zm.71,9H68.27V10.53h1.45Z"/><path d="M71.73,18V7.49h1.45V18Z"/><path d="M79.57,18V8.05H85.8V9.52H81.1v2.62H85v1.47H81.1v2.87h4.7V18Z"/><path d="M91.77,10.37a2.55,2.55,0,0,1,1.55.41,2.08,2.08,0,0,1,.77,1.1,5,5,0,0,1,.22,1.54V18H92.86V13.52a2.85,2.85,0,0,0-.15-1,1.24,1.24,0,0,0-.48-.66,1.41,1.41,0,0,0-.94-.2,2.09,2.09,0,0,0-1,.24,1.91,1.91,0,0,0-.69.63,1.61,1.61,0,0,0-.25.88V18H87.88V10.53h1.46V11.7a3,3,0,0,1,1-.93A2.65,2.65,0,0,1,91.77,10.37Z"/><path d="M102.66,17h0a4.42,4.42,0,0,1-2.9,1.12,4.22,4.22,0,0,1-2-.49,3.56,3.56,0,0,1-1.38-1.34,3.82,3.82,0,0,1-.49-2,4.06,4.06,0,0,1,.52-2.12,3.63,3.63,0,0,1,1.39-1.36,3.76,3.76,0,0,1,1.87-.47,3.19,3.19,0,0,1,1.7.46,3.29,3.29,0,0,1,1.22,1.26A3.79,3.79,0,0,1,103,14l0,.62H97.29a2.38,2.38,0,0,0,.83,1.59,2.68,2.68,0,0,0,1.77.59,2.45,2.45,0,0,0,1.26-.29,5.08,5.08,0,0,0,.79-.56Zm-3-5.27a2.67,2.67,0,0,0-1.45.39,1.92,1.92,0,0,0-.82,1.33h4.15v-.1a1.54,1.54,0,0,0-.31-.84,2,2,0,0,0-.69-.58A2,2,0,0,0,99.62,11.7Z"/><path d="M108.85,12.48a3.34,3.34,0,0,0-.89-.65,2.12,2.12,0,0,0-.93-.26,3,3,0,0,0-.59.07,1.12,1.12,0,0,0-.48.26.73.73,0,0,0-.2.56.76.76,0,0,0,.46.72,5.69,5.69,0,0,0,1.11.38,11.6,11.6,0,0,1,1.13.39,2.3,2.3,0,0,1,.91.68,1.94,1.94,0,0,1,.36,1.25,1.87,1.87,0,0,1-.39,1.19,2.54,2.54,0,0,1-1,.76,3.35,3.35,0,0,1-1.3.26,4.69,4.69,0,0,1-1.59-.29,3.07,3.07,0,0,1-1.33-1l1-.85a2.74,2.74,0,0,0,.87.69,2.65,2.65,0,0,0,1.19.25,1.71,1.71,0,0,0,.54-.1,1.16,1.16,0,0,0,.46-.29.84.84,0,0,0,.19-.56.68.68,0,0,0-.21-.53,1.4,1.4,0,0,0-.54-.31,6.69,6.69,0,0,0-.75-.22,8.87,8.87,0,0,1-1.19-.42,2.59,2.59,0,0,1-1-.7,1.9,1.9,0,0,1-.39-1.26,1.75,1.75,0,0,1,.38-1.13,2.45,2.45,0,0,1,1-.74,3.32,3.32,0,0,1,1.3-.26,4.21,4.21,0,0,1,1.44.28,2.9,2.9,0,0,1,1.29.91Z"/><path d="M122.19,18l-.93-2.46h-4.14L116.19,18h-1.56l3.83-9.9H120l3.8,9.9ZM118.44,12l-.75,2h3l-.78-2c-.12-.33-.24-.68-.36-1.07s-.25-.76-.37-1.15L118.81,11C118.68,11.35,118.56,11.71,118.44,12Z"/><path d="M126.08,21.2l1.22-2.79,0-.1-3.45-7.78h1.7L127.9,16a2.2,2.2,0,0,1,.09.21l.1.29c0-.11.07-.21.1-.31l.11-.29,1.94-5.35H132L128.91,18l-1.26,3.25Z"/><path d="M136.94,10.37a2.6,2.6,0,0,1,1.55.41,2.13,2.13,0,0,1,.77,1.1,5,5,0,0,1,.22,1.54V18H138V13.52a2.85,2.85,0,0,0-.14-1,1.24,1.24,0,0,0-.48-.66,1.41,1.41,0,0,0-.94-.2,2.07,2.07,0,0,0-1,.24,1.91,1.91,0,0,0-.69.63,1.62,1.62,0,0,0-.26.88V18h-1.45V7.49h1.45V11.7a3.18,3.18,0,0,1,1-.93A2.71,2.71,0,0,1,136.94,10.37Z"/><path d="M148.37,10.53V18H146.9V16.8a3.59,3.59,0,0,1-1,.88,2.88,2.88,0,0,1-1.54.41,3.1,3.1,0,0,1-1.7-.5,3.46,3.46,0,0,1-1.22-1.37,4.31,4.31,0,0,1-.45-2,4.19,4.19,0,0,1,.46-2,3.42,3.42,0,0,1,1.29-1.35,3.54,3.54,0,0,1,1.86-.49,2.65,2.65,0,0,1,1.37.34,3.37,3.37,0,0,1,.94.79v-1Zm-3.68,6.21a2.13,2.13,0,0,0,1.19-.33,2.23,2.23,0,0,0,.79-.9,2.89,2.89,0,0,0,.28-1.3,2.79,2.79,0,0,0-.28-1.27,2.27,2.27,0,0,0-.79-.89,2.05,2.05,0,0,0-1.19-.34,2.1,2.1,0,0,0-1.16.33,2.28,2.28,0,0,0-.79.89,2.8,2.8,0,0,0-.28,1.28,2.89,2.89,0,0,0,.28,1.3,2.31,2.31,0,0,0,.79.9A2.1,2.1,0,0,0,144.69,16.74Z"/><path d="M154.29,10.37a2.55,2.55,0,0,1,1.55.41,2.08,2.08,0,0,1,.77,1.1,5,5,0,0,1,.22,1.54V18h-1.45V13.52a3.13,3.13,0,0,0-.14-1,1.36,1.36,0,0,0-.48-.66,1.45,1.45,0,0,0-.95-.2,2,2,0,0,0-1,.24,1.86,1.86,0,0,0-.7.63,1.61,1.61,0,0,0-.25.88V18H150.4V10.53h1.46V11.7a3.07,3.07,0,0,1,1-.93A2.65,2.65,0,0,1,154.29,10.37Z"/></g></g></svg>